<?xml version="1.0" encoding="UTF-8" standalone="no"?>
<!-- Generator: Adobe Illustrator 16.0.3, SVG Export Plug-In . SVG Version: 6.00 Build 0)  -->

<svg
   xmlns:dc="http://purl.org/dc/elements/1.1/"
   xmlns:cc="http://creativecommons.org/ns#"
   xmlns:rdf="http://www.w3.org/1999/02/22-rdf-syntax-ns#"
   xmlns:svg="http://www.w3.org/2000/svg"
   xmlns="http://www.w3.org/2000/svg"
   xmlns:sodipodi="http://sodipodi.sourceforge.net/DTD/sodipodi-0.dtd"
   xmlns:inkscape="http://www.inkscape.org/namespaces/inkscape"
   version="1.1"
   id="Layer_1"
   x="0px"
   y="0px"
   width="78px"
   height="78px"
   viewBox="0 0 78 78"
   enable-background="new 0 0 78 78"
   xml:space="preserve"
   inkscape:version="0.48.3.1 r9886"
   sodipodi:docname="merge.svg"><metadata
   id="metadata10"><rdf:RDF><cc:Work
       rdf:about=""><dc:format>image/svg+xml</dc:format><dc:type
         rdf:resource="http://purl.org/dc/dcmitype/StillImage" /><dc:title></dc:title></cc:Work></rdf:RDF></metadata><defs
   id="defs8" /><sodipodi:namedview
   pagecolor="#ffffff"
   bordercolor="#666666"
   borderopacity="1"
   objecttolerance="10"
   gridtolerance="10"
   guidetolerance="10"
   inkscape:pageopacity="0"
   inkscape:pageshadow="2"
   inkscape:window-width="1920"
   inkscape:window-height="929"
   id="namedview6"
   showgrid="false"
   inkscape:zoom="4.2789026"
   inkscape:cx="155.04198"
   inkscape:cy="29.239663"
   inkscape:window-x="0"
   inkscape:window-y="27"
   inkscape:window-maximized="1"
   inkscape:current-layer="Layer_1" />

<rect
   id="_x3C_Slice_x3E__154_"
   width="53.46769"
   height="53.46769"
   x="23.202072"
   y="18.319084"
   style="fill:none" />
<path
   style="fill:#97bbd5"
   inkscape:connector-curvature="0"
   d="m 1.6406798,11.237097 0,8.501365 c 0,1.065926 1.316867,1.458654 2.7768933,1.929635 l 28.8037689,9.291641 0,17.451716 c 0,0.0055 0.0013,0.01028 0.0013,0.01508 l -0.0013,1.928264 c -0.0013,3.330077 -0.04319,3.333505 -3.338989,3.333505 l -2.925642,0.0055 c -0.294758,-6.85e-4 -0.553185,0.104879 -0.755403,0.304355 -0.200847,0.200161 -0.306411,0.457903 -0.306411,0.747177 0,0.231693 0.07129,0.449676 0.202217,0.628588 l 12.103577,15.672195 c 0.331774,0.2975 0.755403,0.46133 1.203709,0.46133 0.446935,-0.0021 0.870564,-0.165201 1.200966,-0.464072 l 12.13511,-15.683178 c 0.119274,-0.156975 0.188507,-0.372903 0.188507,-0.607338 0,-0.507258 -0.540846,-1.052217 -1.0577,-1.052217 l -2.931811,-0.0027 c -3.334876,0 -3.334876,0 -3.334876,-3.336932 l -0.0013,-9.829144 c 0,-0.06375 -0.0068,-0.126814 -0.01988,-0.189193 l 0,-11.312529 0,-8.488341 0,-0.01371 c 0,-0.01028 -0.0041,-0.01919 -0.0041,-0.03016 -0.02262,-1.052902 -0.873991,-1.899473 -1.925522,-1.899473 l -0.847258,0 -6.212299,0 L 4.4175731,9.3067761 C 2.8834606,9.3074621 1.6406798,10.171171 1.6406798,11.237097 z"
   id="path3-7"
   sodipodi:nodetypes="ssscscccccscccccscccccccscscccs" /><path
   style="fill:#97bbd5"
   inkscape:connector-curvature="0"
   d="m 77.1841,11.151068 0,8.501365 c 0,1.065927 -1.316868,1.458654 -2.776893,1.929635 l -28.803771,9.29164 0,17.451717 c 0,0.0055 -0.0013,0.01028 -0.0013,0.01508 l 0.0013,1.928264 c 0.0013,3.330078 0.04319,3.333506 3.338988,3.333506 l 2.925643,0.0055 c 0.294758,-6.85e-4 0.553185,0.104879 0.755402,0.304355 0.200847,0.200161 0.306411,0.457903 0.306411,0.747177 0,0.231693 -0.07129,0.449676 -0.202218,0.628588 L 40.624086,70.96009 c -0.331774,0.2975 -0.755402,0.461331 -1.203709,0.461331 -0.446935,-0.0021 -0.870563,-0.165202 -1.200967,-0.464073 L 26.084302,55.274169 c -0.119275,-0.156975 -0.188509,-0.372903 -0.188509,-0.607338 0,-0.507258 0.540847,-1.052217 1.057701,-1.052217 l 2.931812,-0.0027 c 3.334876,0 3.334876,0 3.334876,-3.336933 l 0.0013,-9.829143 c 0,-0.06375 0.0068,-0.126815 0.01988,-0.189194 l 0,-11.312529 0,-8.488341 0,-0.01371 c 0,-0.01028 0.0041,-0.01919 0.0041,-0.03016 0.02262,-1.052903 0.87399,-1.899475 1.925522,-1.899475 l 0.847257,0 6.212299,0 32.176584,-9.2916399 c 1.534112,6.85e-4 2.776893,0.8643949 2.776893,1.9303209 z"
   id="path3-7-9"
   sodipodi:nodetypes="ssscscccccscccccscccccccscscccs" /></svg>